solid cylinder
facet normal -0.000000 0.987688 0.156434
outer loop
vertex 0.000000 1.000000 0.000000
vertex 0.000000 0.951057 0.309017
vertex 1.000000 1.000000 0.000000
endloop
endfacet
facet normal -0.000000 0.987688 0.156434
outer loop
vertex 0.000000 0.951057 0.309017
vertex 1.000000 0.951057 0.309017
vertex 1.000000 1.000000 0.000000
endloop
endfacet
facet normal -0.000000 0.891007 0.453990
outer loop
vertex 0.000000 0.951057 0.309017
vertex 0.000000 0.809017 0.587785
vertex 1.000000 0.951057 0.309017
endloop
endfacet
facet normal -0.000000 0.891007 0.453990
outer loop
vertex 0.000000 0.809017 0.587785
vertex 1.000000 0.809017 0.587785
vertex 1.000000 0.951057 0.309017
endloop
endfacet
facet normal -0.000000 0.707107 0.707107
outer loop
vertex 0.000000 0.809017 0.587785
vertex 0.000000 0.587785 0.809017
vertex 1.000000 0.809017 0.587785
endloop
endfacet
facet normal -0.000000 0.707107 0.707107
outer loop
vertex 0.000000 0.587785 0.809017
vertex 1.000000 0.587785 0.809017
vertex 1.000000 0.809017 0.587785
endloop
endfacet
facet normal -0.000000 0.453990 0.891007
outer loop
vertex 0.000000 0.587785 0.809017
vertex 0.000000 0.309017 0.951057
vertex 1.000000 0.587785 0.809017
endloop
endfacet
facet normal -0.000000 0.453990 0.891007
outer loop
vertex 0.000000 0.309017 0.951057
vertex 1.000000 0.309017 0.951057
vertex 1.000000 0.587785 0.809017
endloop
endfacet
facet normal -0.000000 0.156434 0.987688
outer loop
vertex 0.000000 0.309017 0.951057
vertex 0.000000 0.000000 1.000000
vertex 1.000000 0.309017 0.951057
endloop
endfacet
facet normal -0.000000 0.156434 0.987688
outer loop
vertex 0.000000 0.000000 1.000000
vertex 1.000000 0.000000 1.000000
vertex 1.000000 0.309017 0.951057
endloop
endfacet
facet normal 0.000000 -0.156434 0.987688
outer loop
vertex 0.000000 0.000000 1.000000
vertex 0.000000 -0.309017 0.951057
vertex 1.000000 0.000000 1.000000
endloop
endfacet
facet normal 0.000000 -0.156434 0.987688
outer loop
vertex 0.000000 -0.309017 0.951057
vertex 1.000000 -0.309017 0.951057
vertex 1.000000 0.000000 1.000000
endloop
endfacet
facet normal 0.000000 -0.453990 0.891007
outer loop
vertex 0.000000 -0.309017 0.951057
vertex 0.000000 -0.587785 0.809017
vertex 1.000000 -0.309017 0.951057
endloop
endfacet
facet normal 0.000000 -0.453990 0.891007
outer loop
vertex 0.000000 -0.587785 0.809017
vertex 1.000000 -0.587785 0.809017
vertex 1.000000 -0.309017 0.951057
endloop
endfacet
facet normal 0.000000 -0.707107 0.707107
outer loop
vertex 0.000000 -0.587785 0.809017
vertex 0.000000 -0.809017 0.587785
vertex 1.000000 -0.587785 0.809017
endloop
endfacet
facet normal 0.000000 -0.707107 0.707107
outer loop
vertex 0.000000 -0.809017 0.587785
vertex 1.000000 -0.809017 0.587785
vertex 1.000000 -0.587785 0.809017
endloop
endfacet
facet normal 0.000000 -0.891007 0.453990
outer loop
vertex 0.000000 -0.809017 0.587785
vertex 0.000000 -0.951057 0.309017
vertex 1.000000 -0.809017 0.587785
endloop
endfacet
facet normal 0.000000 -0.891007 0.453990
outer loop
vertex 0.000000 -0.951057 0.309017
vertex 1.000000 -0.951057 0.309017
vertex 1.000000 -0.809017 0.587785
endloop
endfacet
facet normal 0.000000 -0.987688 0.156434
outer loop
vertex 0.000000 -0.951057 0.309017
vertex 0.000000 -1.000000 0.000000
vertex 1.000000 -0.951057 0.309017
endloop
endfacet
facet normal 0.000000 -0.987688 0.156434
outer loop
vertex 0.000000 -1.000000 0.000000
vertex 1.000000 -1.000000 0.000000
vertex 1.000000 -0.951057 0.309017
endloop
endfacet
facet normal 0.000000 -0.987688 -0.156434
outer loop
vertex 0.000000 -1.000000 0.000000
vertex 0.000000 -0.951057 -0.309017
vertex 1.000000 -1.000000 0.000000
endloop
endfacet
facet normal 0.000000 -0.987688 -0.156434
outer loop
vertex 0.000000 -0.951057 -0.309017
vertex 1.000000 -0.951057 -0.309017
vertex 1.000000 -1.000000 0.000000
endloop
endfacet
facet normal 0.000000 -0.891007 -0.453990
outer loop
vertex 0.000000 -0.951057 -0.309017
vertex 0.000000 -0.809017 -0.587785
vertex 1.000000 -0.951057 -0.309017
endloop
endfacet
facet normal 0.000000 -0.891007 -0.453990
outer loop
vertex 0.000000 -0.809017 -0.587785
vertex 1.000000 -0.809017 -0.587785
vertex 1.000000 -0.951057 -0.309017
endloop
endfacet
facet normal 0.000000 -0.707107 -0.707107
outer loop
vertex 0.000000 -0.809017 -0.587785
vertex 0.000000 -0.587785 -0.809017
vertex 1.000000 -0.809017 -0.587785
endloop
endfacet
facet normal 0.000000 -0.707107 -0.707107
outer loop
vertex 0.000000 -0.587785 -0.809017
vertex 1.000000 -0.587785 -0.809017
vertex 1.000000 -0.809017 -0.587785
endloop
endfacet
facet normal 0.000000 -0.453990 -0.891007
outer loop
vertex 0.000000 -0.587785 -0.809017
vertex 0.000000 -0.309017 -0.951057
vertex 1.000000 -0.587785 -0.809017
endloop
endfacet
facet normal 0.000000 -0.453990 -0.891007
outer loop
vertex 0.000000 -0.309017 -0.951057
vertex 1.000000 -0.309017 -0.951057
vertex 1.000000 -0.587785 -0.809017
endloop
endfacet
facet normal 0.000000 -0.156434 -0.987688
outer loop
vertex 0.000000 -0.309017 -0.951057
vertex 0.000000 -0.000000 -1.000000
vertex 1.000000 -0.309017 -0.951057
endloop
endfacet
facet normal 0.000000 -0.156434 -0.987688
outer loop
vertex 0.000000 -0.000000 -1.000000
vertex 1.000000 -0.000000 -1.000000
vertex 1.000000 -0.309017 -0.951057
endloop
endfacet
facet normal 0.000000 0.156434 -0.987688
outer loop
vertex 0.000000 -0.000000 -1.000000
vertex 0.000000 0.309017 -0.951057
vertex 1.000000 -0.000000 -1.000000
endloop
endfacet
facet normal 0.000000 0.156434 -0.987688
outer loop
vertex 0.000000 0.309017 -0.951057
vertex 1.000000 0.309017 -0.951057
vertex 1.000000 -0.000000 -1.000000
endloop
endfacet
facet normal 0.000000 0.453990 -0.891007
outer loop
vertex 0.000000 0.309017 -0.951057
vertex 0.000000 0.587785 -0.809017
vertex 1.000000 0.309017 -0.951057
endloop
endfacet
facet normal 0.000000 0.453990 -0.891007
outer loop
vertex 0.000000 0.587785 -0.809017
vertex 1.000000 0.587785 -0.809017
vertex 1.000000 0.309017 -0.951057
endloop
endfacet
facet normal 0.000000 0.707107 -0.707107
outer loop
vertex 0.000000 0.587785 -0.809017
vertex 0.000000 0.809017 -0.587785
vertex 1.000000 0.587785 -0.809017
endloop
endfacet
facet normal 0.000000 0.707107 -0.707107
outer loop
vertex 0.000000 0.809017 -0.587785
vertex 1.000000 0.809017 -0.587785
vertex 1.000000 0.587785 -0.809017
endloop
endfacet
facet normal 0.000000 0.891007 -0.453990
outer loop
vertex 0.000000 0.809017 -0.587785
vertex 0.000000 0.951057 -0.309017
vertex 1.000000 0.809017 -0.587785
endloop
endfacet
facet normal 0.000000 0.891007 -0.453990
outer loop
vertex 0.000000 0.951057 -0.309017
vertex 1.000000 0.951057 -0.309017
vertex 1.000000 0.809017 -0.587785
endloop
endfacet
facet normal 0.000000 0.987688 -0.156434
outer loop
vertex 0.000000 0.951057 -0.309017
vertex 0.000000 1.000000 0.000000
vertex 1.000000 0.951057 -0.309017
endloop
endfacet
facet normal 0.000000 0.987688 -0.156434
outer loop
vertex 0.000000 1.000000 0.000000
vertex 1.000000 1.000000 0.000000
vertex 1.000000 0.951057 -0.309017
endloop
endfacet
endsolid cylinder
